<?xml version="1.0" encoding="utf-8"?>
<!-- Generator: Adobe Illustrator 19.2.1, SVG Export Plug-In . SVG Version: 6.00 Build 0)  -->
<svg version="1.1" id="Layer_1" xmlns="http://www.w3.org/2000/svg" xmlns:xlink="http://www.w3.org/1999/xlink" x="0px" y="0px"
	 viewBox="0 0 100 100" style="enable-background:new 0 0 100 100;" xml:space="preserve">
<style type="text/css">
	.st0{fill:#D4FFF5;stroke:#231F20;stroke-width:3;stroke-miterlimit:10;}
	.st1{fill:#FFFFFF;stroke:#231F20;stroke-width:2.3514;stroke-miterlimit:10;}
	.st2{fill:#231F20;stroke:#231F20;stroke-width:2.265;stroke-miterlimit:10;}
	.st3{fill:#FFFFFF;}
</style>
<circle class="st0" cx="50" cy="50" r="48.1"/>
<circle class="st1" cx="50" cy="50" r="37.7"/>
<path class="st2" d="M97.7,55.1L5.4,65.2c-4.8-7.8-3.1-20.1-3.1-20.1l91.8-10C94.2,35.2,99.2,46.4,97.7,55.1z"/>
<g>
	<path class="st3" d="M5.7,56.9L4.5,57l-0.1-1.4l1.5-0.2L6,53.5l-1.3,0.1l-0.1-1.4L6.1,52L6,49.1l1.5-0.2L7.3,52l1.5-0.2l0.2-3
		l1.5-0.2l-0.1,3.1l1.3-0.1l0.1,1.4l-1.5,0.2L10.2,55l1.3-0.1l0.1,1.4l-1.5,0.2L10,59.6l-1.5,0.2l0.1-3.1l-1.5,0.2L7,60l-1.4,0
		L5.7,56.9z M8.8,53.3l-1.5,0.2l-0.1,1.9l1.5-0.2L8.8,53.3z"/>
	<path class="st3" d="M16.6,50.5l-2,2.1l-1.5-1.4l3.2-3.3l2.1-0.2l1.1,10.8l-2.2,0.2L16.6,50.5z"/>
	<path class="st3" d="M25.8,50.9c0.1,0,0.2-0.1,0.4-0.1c0.1,0,0.2-0.1,0.4-0.1c0.5-0.1,1,0,1.4,0.1s0.8,0.4,1.1,0.6
		c0.3,0.3,0.6,0.6,0.8,1c0.2,0.4,0.3,0.9,0.4,1.4c0.1,0.6,0,1.1-0.2,1.5c-0.2,0.5-0.4,0.9-0.7,1.3s-0.7,0.7-1.2,0.9s-1,0.4-1.5,0.4
		c-0.6,0.1-1.1,0-1.6-0.1s-1-0.3-1.4-0.6s-0.7-0.6-1-1.1c-0.3-0.4-0.4-0.9-0.5-1.5c0-0.4,0-0.7,0-1.1c0-0.3,0.1-0.6,0.2-0.9
		c0.1-0.3,0.2-0.6,0.3-0.9c0.1-0.3,0.3-0.6,0.4-0.9l2-3.9l2.8-0.3L25.8,50.9z M28,54c-0.1-0.5-0.3-0.9-0.6-1.2
		c-0.4-0.3-0.8-0.4-1.3-0.3c-0.5,0.1-0.9,0.3-1.2,0.6s-0.4,0.8-0.4,1.3c0.1,0.5,0.3,0.9,0.6,1.2c0.4,0.3,0.8,0.4,1.3,0.3
		c0.5-0.1,0.9-0.3,1.2-0.6C27.9,54.9,28,54.5,28,54z"/>
	<path class="st3" d="M34.7,48.7l-2,2.1l-1.5-1.4l3.2-3.3l2.1-0.2l1.1,10.8l-2.2,0.2L34.7,48.7z"/>
	<path class="st3" d="M43.7,47.7l-2,2.1l-1.5-1.4l3.2-3.3l2.1-0.2l1.1,10.8l-2.2,0.2L43.7,47.7z"/>
	<path class="st3" d="M53.4,38.3L55,61.5l-1.9,0.3l-1.6-23.2L53.4,38.3z"/>
	<path class="st3" d="M58.4,37.6L60,60.8l-1.9,0.3l-1.6-23.2L58.4,37.6z"/>
	<path class="st3" d="M64.9,42.9l4-0.4c0.5,0,0.9-0.1,1.4,0c0.5,0,0.9,0.1,1.3,0.3s0.7,0.4,1,0.7s0.4,0.8,0.5,1.4
		c0.1,0.6-0.1,1.1-0.4,1.6c-0.3,0.4-0.7,0.8-1.3,1l0,0c0.4,0,0.7,0.1,1,0.2c0.3,0.1,0.6,0.3,0.8,0.5c0.2,0.2,0.4,0.5,0.6,0.8
		s0.2,0.6,0.3,1c0.1,0.6,0,1.1-0.2,1.5s-0.5,0.7-0.8,1c-0.4,0.3-0.8,0.5-1.2,0.6s-0.9,0.3-1.4,0.3L66,53.7L64.9,42.9z M67.7,47
		l1.7-0.2c0.2,0,0.4-0.1,0.5-0.1c0.2-0.1,0.3-0.1,0.5-0.2c0.1-0.1,0.2-0.2,0.3-0.4c0.1-0.2,0.1-0.3,0.1-0.6c0-0.2-0.1-0.4-0.2-0.5
		s-0.2-0.2-0.4-0.3c-0.2-0.1-0.3-0.1-0.5-0.1s-0.4,0-0.6,0l-1.6,0.2L67.7,47z M68.2,51.4l2.1-0.2c0.2,0,0.4-0.1,0.5-0.1
		c0.2-0.1,0.3-0.1,0.5-0.3s0.3-0.3,0.3-0.4c0.1-0.2,0.1-0.4,0.1-0.6c0-0.3-0.1-0.5-0.3-0.6c-0.1-0.1-0.3-0.2-0.5-0.3
		s-0.4-0.1-0.6-0.1s-0.4,0-0.6,0L68,49L68.2,51.4z"/>
	<path class="st3" d="M82.8,51.9l-2.2,0.2l-0.1-1l0,0c-0.1,0.2-0.2,0.3-0.3,0.5s-0.3,0.3-0.4,0.4s-0.4,0.2-0.6,0.3s-0.5,0.2-0.8,0.2
		c-0.6,0.1-1.1,0-1.4-0.1c-0.4-0.1-0.7-0.4-0.9-0.7c-0.2-0.3-0.4-0.7-0.5-1.1c-0.1-0.4-0.2-0.9-0.2-1.4L75,45.1l2.3-0.2l0.4,3.6
		c0,0.2,0.1,0.4,0.1,0.7c0,0.2,0.1,0.4,0.2,0.6c0.1,0.2,0.2,0.3,0.4,0.4s0.4,0.1,0.7,0.1c0.3,0,0.5-0.1,0.7-0.2
		c0.2-0.1,0.3-0.3,0.4-0.5s0.1-0.4,0.1-0.6c0-0.2,0-0.5,0-0.7l-0.4-3.7l2.3-0.2L82.8,51.9z"/>
	<path class="st3" d="M88,46.1c-0.4-0.4-0.8-0.5-1.4-0.5c-0.2,0-0.4,0.1-0.5,0.2c-0.2,0.1-0.2,0.3-0.2,0.5s0.1,0.3,0.3,0.4
		c0.2,0.1,0.4,0.1,0.7,0.2c0.3,0,0.6,0.1,1,0.1s0.7,0.1,1,0.3c0.3,0.1,0.6,0.3,0.8,0.6c0.2,0.3,0.4,0.6,0.4,1.1s0,0.9-0.2,1.2
		s-0.4,0.6-0.7,0.8c-0.3,0.2-0.7,0.4-1.1,0.5s-0.8,0.2-1.2,0.2c-0.5,0.1-1,0-1.6-0.1c-0.5-0.1-1-0.3-1.4-0.6l1.2-1.7
		c0.2,0.2,0.5,0.4,0.8,0.5s0.6,0.1,0.9,0.1s0.5-0.1,0.7-0.2c0.2-0.1,0.3-0.2,0.3-0.5c0-0.2-0.1-0.3-0.3-0.4
		c-0.2-0.1-0.4-0.1-0.7-0.2c-0.3,0-0.6-0.1-1-0.1c-0.3,0-0.7-0.1-1-0.2c-0.3-0.1-0.6-0.3-0.8-0.6c-0.2-0.3-0.4-0.6-0.4-1.1
		c0-0.4,0-0.8,0.1-1.2c0.1-0.3,0.4-0.6,0.6-0.9c0.3-0.2,0.6-0.4,1-0.6c0.4-0.1,0.7-0.2,1.1-0.3c0.5-0.1,1,0,1.5,0.1s1,0.3,1.3,0.6
		L88,46.1z"/>
	<path class="st3" d="M95.9,44.9l-2,0.2l0.3,2.5c0,0.2,0.1,0.4,0.1,0.6c0,0.2,0.1,0.3,0.2,0.4s0.2,0.2,0.4,0.2
		c0.2,0.1,0.4,0.1,0.6,0c0.1,0,0.3,0,0.5-0.1c0.2,0,0.3-0.1,0.4-0.2l0.2,1.9c-0.2,0.1-0.5,0.2-0.8,0.3s-0.5,0.1-0.8,0.1
		c-0.4,0-0.7,0-1.1,0c-0.3,0-0.6-0.1-0.9-0.3s-0.5-0.4-0.6-0.6c-0.2-0.3-0.3-0.6-0.3-1l-0.4-3.5l-1.5,0.2L90,43.8l1.5-0.2l-0.2-2.2
		l2.3-0.2l0.2,2.2l2-0.2L95.9,44.9z"/>
</g>
</svg>
